<?xml version="1.0"?><svg width="793.7007874015749" height="1122.5196850393702" xmlns="http://www.w3.org/2000/svg">
 <metadata id="metadata18081">image/svg+xmlPublic Domainclker.comMohamed Ibrahimmap symbolsmap symbolsimage/svg+xmlMap SymbolsMohamed IbrahimPublic DomainMap Symbols</metadata>

 <g>
  <title>Layer 1</title>
  <path fill="#231f20" fill-rule="nonzero" id="path8248" d="m636.893127,439.245209c51.442749,0 93.160828,-40.062866 93.160828,-89.298431c0,-49.235657 -41.718079,-89.163696 -93.160828,-89.163696c-51.583435,0 -93.301331,39.92804 -93.301331,89.163696c0,49.235565 41.717896,89.298431 93.301331,89.298431"/>
  <path fill="#231f20" fill-rule="nonzero" id="path8256" d="m368.266602,463.835876l-101.914337,135.310303c-6.041626,8.535217 -15.153473,13.770081 -25.453857,13.770081c-18.223755,0 -32.981018,-16.956482 -32.981018,-37.782104c0,-11.380188 4.258759,-21.508667 11.092697,-28.4505l109.936783,-145.438751c6.041565,-8.307587 15.153442,-13.656281 25.453827,-13.656281l159.061707,-0.113739c11.68689,0 22.185486,5.462433 29.910706,13.997589l101.419067,116.53302l84.086853,-96.390137c5.942505,-5.803802 13.568787,-9.217926 21.888245,-9.217926c18.817993,0 33.971497,17.525421 33.971497,39.147705c0,9.445679 -2.773254,17.980713 -7.626282,24.808868l-101.320129,117.329712c-30.802063,35.278625 -55.562622,5.348633 -55.562622,5.348633l-62.198364,-71.80896l-97.160431,129.165161l89.038971,102.307861c0,0 18.817993,20.029114 8.022339,59.859741l-49.917175,255.712524c-3.961731,22.191528 -20.997009,38.920532 -41.399658,38.920532c-23.472931,0 -42.390045,-21.850098 -42.390045,-48.707275c0,-4.324341 0.39624,-8.421387 1.287598,-12.290527l41.102448,-209.736938l-101.221039,-113.005127l-87.058014,111.525879c0,0 -14.064026,19.915344 -51.402924,18.435852l-176.592068,0.341431c-19.709412,0.341431 -37.636045,-15.135742 -41.993896,-38.123657c-5.249184,-26.174438 8.814758,-51.893677 31.693501,-57.697571c3.56551,-0.9104 7.131039,-1.251831 10.597534,-1.138062l151.83152,0.455322l224.528564,-299.071289l-58.731995,-0.34137z"/>
 </g>
</svg>